<?xml version="1.0" encoding="UTF-8"?>
<svg id="Layer_6" data-name="Layer 6" xmlns="http://www.w3.org/2000/svg" viewBox="0 0 792 612">
  <defs>
    <style>
      .cls-1 {
        fill: none;
        stroke: #231f20;
        stroke-miterlimit: 10;
      }

      .cls-2 {
        fill: #fff;
      }

      .cls-3 {
        fill: #ffce23;
      }
    </style>
  </defs>
  <ellipse class="cls-1" cx="384.68" cy="290.87" rx="340.63" ry="66.38" transform="translate(-44.67 71.22) rotate(-10)"/>
  <g>
    <path class="cls-3" d="M383.3,257.19c-.76-2.2-7.8-2.67-18.42-1.62l-9.44-50.83-45.89,62.55c-17.86,5.54-29.73,11.29-28.63,14.42,.52,1.51,3.96,2.2,9.46,2.15,2.12-.02,4.58-.15,7.28-.38,2.56-.22,5.36-.53,8.36-.94,8.38-1.13,18.26-3,28.73-5.5,2.96-.71,5.84-1.44,8.62-2.19-1.08-1.06-1.72-2.42-1.72-3.91,0-.12,0-.25,.02-.36v-.13c.32-3.3,3.82-5.88,8.08-5.88,2.74,0,5.18,1.08,6.64,2.72,.34,.36,.62,.76,.84,1.19,.04,.05,.06,.1,.08,.15,.32,.61,.5,1.29,.54,1.99,2.64-.86,5.14-1.72,7.46-2.59,1.56-.56,3.06-1.14,4.44-1.71,9.04-3.65,14.28-6.99,13.54-9.12Zm-53.85,4.67c-.18,.05-.36,.08-.54,.13l17.34-25.81,2.52,21.65c-6.02,1.06-12.56,2.4-19.32,4.03Z"/>
    <path class="cls-3" d="M373.88,272.39c-4.02,5.1-16.9,12.56-34.05,19.62l-28.83,38.55-51.93,5.5,20.7-28.21c-4.22,0-6.96-.71-7.76-2.24-2.36-2.14-.68-8.3,.34-11.29-.02,.13,0,.23,.04,.35,.4,1.19,2.64,1.87,6.28,2.09,2.52,.15,5.68,.07,9.38-.22,9.86-.76,23.45-3.02,38.17-6.55,6.76-1.62,13.14-3.35,18.92-5.12,14.72-4.49,25.55-9.17,28.73-12.5Z"/>
  </g>
  <path class="cls-2" d="M159.04,312.09c0,5.19-1.94,9.52-5.82,12.98-3.88,3.46-8.71,5.19-14.48,5.19h-63.88v-15.07h63.74c2.41,0,3.62-1.04,3.62-3.1s-1.21-3.1-3.62-3.1h-47.84c-5.73,0-10.55-1.73-14.48-5.19-3.93-3.46-5.89-7.83-5.89-13.11s1.96-9.51,5.89-12.95c3.93-3.44,8.75-5.16,14.48-5.16h63.95v15.01h-63.81c-2.41,0-3.62,1.04-3.62,3.1,0,2.2,1.21,3.29,3.62,3.29h47.84c5.77,0,10.6,1.72,14.48,5.16,3.88,3.44,5.82,7.76,5.82,12.95Z"/>
  <path class="cls-2" d="M256.14,287.71h-35.91v42.68h-16.82v-42.68h-35.91v-15.13h88.65v15.13Z"/>
  <path class="cls-2" d="M475.13,290.97c0,8.54-4.27,14.79-12.81,18.76l8.86,18.18h-17.21l-7.18-14.69h-37.07v14.56h-15.4v-59.07h51.43c7.59,0,14.17,1.77,19.73,5.31,6.43,4.05,9.64,9.7,9.64,16.95Zm-15.33,0c0-2.33-1.85-4.14-5.56-5.44-2.76-.91-5.59-1.36-8.48-1.36h-36.04v13.65h35.91c2.97,0,5.84-.47,8.61-1.42,3.71-1.25,5.56-3.06,5.56-5.43Z"/>
  <path class="cls-2" d="M562.27,284.18h-32.74v43.61h-15.33v-43.61h-32.74v-15.46h80.81v15.46Z"/>
  <path class="cls-2" d="M651.56,327.65h-15.33v-3.3c-4.7,2.2-9.38,3.3-14.04,3.3h-21.87c-8.5,0-15.55-2.76-21.16-8.28-5.61-5.52-8.41-12.57-8.41-21.16v-29.5h15.4v29.37c0,4.36,1.27,7.81,3.82,10.35,2.54,2.55,5.99,3.82,10.35,3.82h21.74c4.31,0,7.75-1.27,10.32-3.82,2.56-2.54,3.85-5.95,3.85-10.22v-29.5h15.33v58.94Z"/>
  <path class="cls-2" d="M742.98,290.97c0,7.59-3.34,13.37-10.03,17.34-5.48,3.28-12.29,4.92-20.44,4.92h-34.94v14.43h-15.4v-58.94h50.34c8.15,0,14.97,1.57,20.44,4.72,6.69,3.97,10.03,9.81,10.03,17.53Zm-15.33,0c0-2.24-1.34-3.97-4.01-5.18-2.29-1.16-5.11-1.75-8.48-1.75h-37.59v13.65h37.59c3.36,0,6.19-.52,8.48-1.55,2.67-1.25,4.01-2.98,4.01-5.17Z"/>
  <path class="cls-3" d="M683.31,262.29h-13.43l-17.58-12.09h-6.77v12.09h-7.45v-31.43h7.45v11.88h4.84l18.79-11.88h14.08l-23.94,15.11,24.01,16.31Z"/>
  <path class="cls-3" d="M695.57,262.29h-8.17v-31.36h8.17v31.36Z"/>
  <path class="cls-3" d="M741.79,239.14h-17.38v23.15h-8.14v-23.15h-17.38v-8.21h42.9v8.21Z"/>
</svg>